<svg width="39" height="39" viewBox="0 0 39 39" fill="none" xmlns="http://www.w3.org/2000/svg">
<g clip-path="url(#clip0_116_721)">
<path d="M33.4595 12.5956L32.0079 18.4174C31.9438 18.6747 31.78 18.8961 31.5527 19.0326C31.3253 19.1692 31.053 19.2099 30.7957 19.1458L24.9739 17.6942C24.7819 17.6465 24.6083 17.5429 24.4752 17.3965C24.3421 17.25 24.2554 17.0674 24.2261 16.8717C24.1968 16.676 24.2263 16.476 24.3107 16.297C24.3952 16.118 24.5308 15.9681 24.7005 15.8663L27.4759 14.1956C26.1162 12.0385 23.9791 10.4868 21.5071 9.86163L21.4525 9.84802C18.9185 9.21095 16.2356 9.59722 13.9843 10.9232C13.7559 11.05 13.4869 11.0824 13.2349 11.0134C12.9829 10.9444 12.768 10.7795 12.636 10.554C12.504 10.3286 12.4655 10.0604 12.5287 9.8069C12.592 9.55341 12.7519 9.33472 12.9743 9.19763C15.6642 7.62359 18.861 7.15783 21.8882 7.8989C24.9154 8.63996 27.5356 10.5297 29.1942 13.1683L31.9763 11.4967C32.1458 11.3955 32.3414 11.3468 32.5385 11.3566C32.7357 11.3664 32.9255 11.4344 33.0841 11.5519C33.2427 11.6694 33.3629 11.8312 33.4297 12.0169C33.4965 12.2027 33.5069 12.404 33.4595 12.5956ZM24.8091 27.8678C22.5741 29.1751 19.9192 29.5646 17.4029 28.9543C14.8866 28.344 12.7052 26.7814 11.3175 24.5954L14.0919 22.9284C14.2628 22.8271 14.3997 22.6771 14.485 22.4977C14.5704 22.3183 14.6003 22.1175 14.5711 21.921C14.5418 21.7245 14.4547 21.5412 14.3209 21.3944C14.187 21.2476 14.0124 21.144 13.8194 21.0968L7.99767 19.6453C7.74033 19.5811 7.46805 19.6218 7.24071 19.7584C7.01338 19.895 6.84962 20.1163 6.78546 20.3736L5.33392 26.1954C5.2859 26.3874 5.29591 26.5893 5.3627 26.7756C5.42949 26.9619 5.55005 27.1242 5.70911 27.2419C5.86818 27.3596 6.0586 27.4275 6.25627 27.437C6.45394 27.4464 6.64997 27.397 6.81954 27.295L9.59916 25.6228C11.2314 28.2331 13.8097 30.1112 16.7949 30.8643L16.8592 30.8803C19.8992 31.6466 23.1187 31.1843 25.8203 29.5937C26.0427 29.4566 26.2026 29.2379 26.2659 28.9844C26.3291 28.731 26.2906 28.4628 26.1586 28.2373C26.0266 28.0119 25.8117 27.847 25.5597 27.778C25.3077 27.709 25.0387 27.7413 24.8103 27.8681L24.8091 27.8678Z" fill="white"/>
</g>
<defs>
<clipPath id="clip0_116_721">
<rect width="32" height="32" fill="white" transform="translate(7.74219) rotate(14)"/>
</clipPath>
</defs>
</svg>
