<svg width="32" height="32" viewBox="0 0 32 32" fill="none" xmlns="http://www.w3.org/2000/svg">
<path fill-rule="evenodd" clip-rule="evenodd" d="M17.4965 2.02326C17.6531 2.05745 17.7992 2.1288 17.9225 2.23129C20.6513 4.50004 27 10.5688 27 18C27 20.9174 25.8411 23.7153 23.7782 25.7782C21.7153 27.8411 18.9174 29 16 29C13.0826 29 10.2847 27.8411 8.22183 25.7782C6.15893 23.7153 5 20.9174 5 18C5 14.51 6.375 10.9413 9.0825 7.39379C9.1682 7.28146 9.27674 7.18857 9.40095 7.12123C9.52516 7.0539 9.66223 7.01365 9.80313 7.00314C9.94403 6.99263 10.0856 7.01209 10.2184 7.06025C10.3512 7.10841 10.4723 7.18417 10.5737 7.28254L13.5938 10.2088L16.3438 2.65754C16.3987 2.50693 16.489 2.37174 16.6072 2.26337C16.7253 2.15499 16.8678 2.0766 17.0225 2.03481C17.1773 1.99303 17.3399 1.98906 17.4965 2.02326ZM20.781 15.281L15.531 20.531C15.4614 20.6008 15.3787 20.6561 15.2876 20.6938C15.1966 20.7316 15.099 20.751 15.0004 20.751C14.9019 20.751 14.8043 20.7316 14.7132 20.6938C14.6222 20.6561 14.5394 20.6008 14.4698 20.531L12.2198 18.281C12.0791 18.1403 12 17.9494 12 17.7504C12 17.5514 12.0791 17.3605 12.2198 17.2198C12.3605 17.0791 12.5514 17 12.7504 17C12.9494 17 13.1403 17.0791 13.281 17.2198L15.0004 18.9401L19.7198 14.2198C19.7895 14.1501 19.8722 14.0948 19.9632 14.0571C20.0543 14.0194 20.1519 14 20.2504 14C20.349 14 20.4465 14.0194 20.5376 14.0571C20.6286 14.0948 20.7114 14.1501 20.781 14.2198C20.8507 14.2895 20.906 14.3722 20.9437 14.4632C20.9814 14.5543 21.0008 14.6519 21.0008 14.7504C21.0008 14.849 20.9814 14.9465 20.9437 15.0376C20.906 15.1286 20.8507 15.2114 20.781 15.281Z" fill="url(#paint0_linear_125_748)"/>
<path d="M16.6768 0.0627898C17.0874 -0.0219954 17.5119 -0.0200803 17.9229 0.0696257C18.334 0.159394 18.7215 0.333938 19.0596 0.582321L19.2012 0.693649L19.7832 1.18877C21.2368 2.45316 23.31 4.46599 25.1182 7.02568C27.1761 9.9389 29 13.7161 29 18.0003C28.9999 21.448 27.6303 24.7547 25.1924 27.1927C22.7544 29.6306 19.4478 31.0003 16 31.0003C12.5522 31.0003 9.24558 29.6306 6.80762 27.1927C4.36969 24.7547 3.00005 21.448 3 18.0003C3 13.962 4.59398 9.97735 7.49219 6.17998C7.74925 5.84314 8.07572 5.56454 8.44824 5.36259L8.58887 5.29131C8.92309 5.13232 9.28431 5.03669 9.6543 5.00908L9.8125 5.00127C10.1296 4.99439 10.4456 5.03804 10.749 5.13017L10.9004 5.17998L11.0479 5.23857C11.3879 5.38269 11.6989 5.58835 11.9648 5.84599L12.7695 6.62529L14.4648 1.97295V1.97197C14.6297 1.52022 14.9005 1.11444 15.2549 0.789352L15.3916 0.672165C15.7171 0.407687 16.0948 0.213502 16.501 0.103805L16.6768 0.0627898ZM17.4961 2.02373C17.3396 1.9896 17.1771 1.99271 17.0225 2.03447C16.8678 2.07622 16.7255 2.15477 16.6074 2.26298C16.4893 2.37135 16.3987 2.50693 16.3438 2.65752L13.5938 10.2093L10.5742 7.28252C10.4728 7.18419 10.3515 7.10802 10.2188 7.05986C10.0859 7.0117 9.94363 6.99271 9.80273 7.00322C9.66208 7.01377 9.52539 7.0542 9.40137 7.12138C9.27715 7.18872 9.16773 7.28152 9.08203 7.39384C6.37465 10.9413 5 14.5104 5 18.0003C5.00005 20.9176 6.15883 23.7158 8.22168 25.7786C10.2846 27.8414 13.0827 29.0003 16 29.0003C18.9173 29.0003 21.7154 27.8414 23.7783 25.7786C25.8412 23.7158 26.9999 20.9176 27 18.0003C27 10.5694 20.6518 4.50075 17.9229 2.23173C17.7996 2.12924 17.6527 2.05792 17.4961 2.02373ZM20.25 14.0003C20.3484 14.0003 20.4462 14.0194 20.5371 14.0569C20.6282 14.0946 20.7116 14.1503 20.7812 14.22C20.8508 14.2896 20.9057 14.3723 20.9434 14.4632C20.981 14.5542 21.001 14.6518 21.001 14.7503C21.001 14.8488 20.9811 14.9464 20.9434 15.0374C20.9056 15.1284 20.8509 15.2119 20.7812 15.2815L15.5312 20.5315C15.4617 20.6011 15.3789 20.6559 15.2881 20.6936C15.197 20.7314 15.0986 20.7513 15 20.7513C14.9016 20.7512 14.8038 20.7313 14.7129 20.6936C14.6221 20.6559 14.5393 20.6011 14.4697 20.5315L12.2197 18.2815C12.079 18.1408 12 17.9493 12 17.7503C12 17.5514 12.0791 17.3607 12.2197 17.22C12.3604 17.0794 12.5511 17.0004 12.75 17.0003C12.949 17.0003 13.1405 17.0793 13.2812 17.22L15 18.9397L19.7197 14.22C19.7894 14.1504 19.8719 14.0946 19.9629 14.0569C20.0538 14.0193 20.1516 14.0003 20.25 14.0003Z" fill="white"/>
<defs>
<linearGradient id="paint0_linear_125_748" x1="13" y1="8.57189e-08" x2="24" y2="28" gradientUnits="userSpaceOnUse">
<stop stop-color="#EEC211"/>
<stop offset="1" stop-color="#EF6F00"/>
</linearGradient>
</defs>
</svg>
