<svg width="38" height="38" viewBox="0 0 38 38" fill="none" xmlns="http://www.w3.org/2000/svg">
<g clip-path="url(#clip0_116_713)">
<path d="M29.642 9.68681L23.0927 5.27033C22.8749 5.12341 22.6304 5.02083 22.3729 4.96845C22.1155 4.91606 21.8503 4.9149 21.5925 4.96502C21.3346 5.01514 21.0892 5.11557 20.8701 5.26057C20.6511 5.40556 20.4628 5.59229 20.3159 5.81008L8.12642 23.8817C7.97863 24.099 7.8755 24.3434 7.82301 24.6008C7.77053 24.8583 7.76974 25.1236 7.8207 25.3814L8.88661 30.865C8.98782 31.3857 9.29173 31.8448 9.73147 32.1414C10.1712 32.438 10.7108 32.5478 11.2315 32.4466L31.8456 28.4396C32.106 28.389 32.3356 28.2371 32.4839 28.0172C32.6322 27.7973 32.6871 27.5275 32.6365 27.2672C32.5859 27.0068 32.4339 26.7773 32.214 26.629C31.9942 26.4806 31.7244 26.4258 31.464 26.4764L19.1103 28.8777L30.1817 12.4636C30.3286 12.2458 30.4312 12.0013 30.4836 11.7439C30.536 11.4865 30.5371 11.2212 30.487 10.9634C30.4369 10.7055 30.3365 10.4601 30.1915 10.241C30.0465 10.022 29.8597 9.83367 29.642 9.68681ZM14.2159 27.2823L23.1462 14.0425L25.592 15.6911L16.6607 28.9323L14.2159 27.2823ZM21.4848 12.924L12.5571 26.1645L10.1112 24.5146L19.0427 11.2747L21.4848 12.924ZM10.1656 26.963L14.3702 29.7991L10.8499 30.4834L10.1656 26.963Z" fill="white"/>
</g>
<defs>
<clipPath id="clip0_116_713">
<rect width="32" height="32" fill="white" transform="translate(0 6.10596) rotate(-11)"/>
</clipPath>
</defs>
</svg>
