<svg width="16" height="16" viewBox="0 0 16 16" fill="none" xmlns="http://www.w3.org/2000/svg">
<g clip-path="url(#clip0_116_706)">
<path d="M13.0006 7C13.0019 6.79614 12.9399 6.59689 12.8233 6.42967C12.7067 6.26246 12.5411 6.13549 12.3493 6.06625L9.12559 4.875L7.93809 1.64875C7.86777 1.45771 7.74053 1.29283 7.57356 1.17637C7.40659 1.0599 7.20791 0.997459 7.00434 0.997459C6.80076 0.997459 6.60208 1.0599 6.43511 1.17637C6.26814 1.29283 6.14091 1.45771 6.07059 1.64875L4.87559 4.875L1.64934 6.0625C1.45829 6.13282 1.29342 6.26005 1.17695 6.42702C1.06049 6.594 0.998047 6.79267 0.998047 6.99625C0.998047 7.19983 1.06049 7.3985 1.17695 7.56548C1.29342 7.73245 1.45829 7.85968 1.64934 7.93L4.87559 9.125L6.06309 12.3512C6.13341 12.5423 6.26064 12.7072 6.42761 12.8236C6.59458 12.9401 6.79326 13.0025 6.99684 13.0025C7.20041 13.0025 7.39909 12.9401 7.56606 12.8236C7.73303 12.7072 7.86027 12.5423 7.93059 12.3512L9.12559 9.125L12.3518 7.9375C12.5437 7.86763 12.7092 7.73992 12.8254 7.57199C12.9416 7.40406 13.0028 7.2042 13.0006 7ZM9.50059 13H10.5006V12C10.5006 11.8674 10.5533 11.7402 10.647 11.6464C10.7408 11.5527 10.868 11.5 11.0006 11.5C11.1332 11.5 11.2604 11.5527 11.3541 11.6464C11.4479 11.7402 11.5006 11.8674 11.5006 12V13H12.5006C12.6332 13 12.7604 13.0527 12.8541 13.1464C12.9479 13.2402 13.0006 13.3674 13.0006 13.5C13.0006 13.6326 12.9479 13.7598 12.8541 13.8536C12.7604 13.9473 12.6332 14 12.5006 14H11.5006V15C11.5006 15.1326 11.4479 15.2598 11.3541 15.3536C11.2604 15.4473 11.1332 15.5 11.0006 15.5C10.868 15.5 10.7408 15.4473 10.647 15.3536C10.5533 15.2598 10.5006 15.1326 10.5006 15V14H9.50059C9.36798 14 9.2408 13.9473 9.14703 13.8536C9.05327 13.7598 9.00059 13.6326 9.00059 13.5C9.00059 13.3674 9.05327 13.2402 9.14703 13.1464C9.2408 13.0527 9.36798 13 9.50059 13ZM15.0006 11H14.5006V11.5C14.5006 11.6326 14.4479 11.7598 14.3541 11.8536C14.2604 11.9473 14.1332 12 14.0006 12C13.868 12 13.7408 11.9473 13.647 11.8536C13.5533 11.7598 13.5006 11.6326 13.5006 11.5V11H13.0006C12.868 11 12.7408 10.9473 12.647 10.8536C12.5533 10.7598 12.5006 10.6326 12.5006 10.5C12.5006 10.3674 12.5533 10.2402 12.647 10.1464C12.7408 10.0527 12.868 10 13.0006 10H13.5006V9.5C13.5006 9.36739 13.5533 9.24021 13.647 9.14645C13.7408 9.05268 13.868 9 14.0006 9C14.1332 9 14.2604 9.05268 14.3541 9.14645C14.4479 9.24021 14.5006 9.36739 14.5006 9.5V10H15.0006C15.1332 10 15.2604 10.0527 15.3541 10.1464C15.4479 10.2402 15.5006 10.3674 15.5006 10.5C15.5006 10.6326 15.4479 10.7598 15.3541 10.8536C15.2604 10.9473 15.1332 11 15.0006 11Z" fill="#545454"/>
</g>
<defs>
<clipPath id="clip0_116_706">
<rect width="16" height="16" fill="white" transform="matrix(1 0 0 -1 0 16)"/>
</clipPath>
</defs>
</svg>
