<svg width="20" height="20" viewBox="0 0 20 20" fill="none" xmlns="http://www.w3.org/2000/svg">
<path d="M13.125 7.78125C14.3992 8.69839 15.9301 9.19046 17.5 9.1875V6.0625C16.3397 6.0625 15.2269 5.60156 14.4064 4.78109C13.5859 3.96062 13.125 2.84782 13.125 1.6875H10V12C9.99984 12.3914 9.89464 12.7756 9.69539 13.1126C9.49614 13.4495 9.21014 13.7268 8.86721 13.9155C8.52428 14.1042 8.137 14.1975 7.74575 14.1856C7.3545 14.1736 6.97362 14.0569 6.64284 13.8476C6.31207 13.6383 6.04351 13.3441 5.86519 12.9956C5.68686 12.6472 5.6053 12.2573 5.62902 11.8666C5.65273 11.4758 5.78085 11.0986 6.00001 10.7743C6.21917 10.45 6.52134 10.1904 6.875 10.0227V6.6875C4.38828 7.13047 2.5 9.38594 2.5 12C2.5 13.409 3.05971 14.7602 4.056 15.7565C5.05228 16.7528 6.40354 17.3125 7.8125 17.3125C9.22146 17.3125 10.5727 16.7528 11.569 15.7565C12.5653 14.7602 13.125 13.409 13.125 12V7.78125Z" stroke="white" stroke-width="1.6" stroke-linecap="round" stroke-linejoin="round"/>
</svg>
