<svg width="38" height="38" viewBox="0 0 38 38" fill="none" xmlns="http://www.w3.org/2000/svg">
<g clip-path="url(#clip0_116_661)">
<path d="M21.7649 15.4803L22.1807 13.524L20.2244 13.1082C19.965 13.053 19.6943 13.1032 19.4719 13.2476C19.2494 13.3921 19.0935 13.619 19.0383 13.8784L16.9592 23.6599C16.9041 23.9193 16.9543 24.19 17.0987 24.4124C17.2432 24.6349 17.47 24.7908 17.7295 24.8459L19.6858 25.2618L20.1016 23.3055C20.2119 22.7866 20.5237 22.3328 20.9686 22.0439C21.4135 21.7551 21.9549 21.6547 22.4737 21.765L28.3426 23.0125C28.8614 23.1227 29.3152 23.4346 29.6041 23.8795C29.893 24.3243 29.9933 24.8657 29.8831 25.3846L28.6356 31.2535C28.5253 31.7723 28.2134 32.2261 27.7686 32.515C27.3237 32.8039 26.7823 32.9042 26.2635 32.7939L20.3946 31.5465C19.8757 31.4362 19.422 31.1243 19.1331 30.6795C18.8442 30.2346 18.7438 29.6932 18.8541 29.1744L19.2699 27.2181L17.3136 26.8022C16.5354 26.6368 15.8547 26.169 15.4214 25.5017C14.988 24.8344 14.8375 24.0223 15.0029 23.2441L15.8346 19.3315L11.922 18.4998L11.7141 19.478C11.6038 19.9968 11.2919 20.4506 10.8471 20.7395C10.4022 21.0284 9.8608 21.1287 9.34196 21.0184L5.42937 20.1868C4.91052 20.0765 4.45674 19.7646 4.16785 19.3198C3.87895 18.8749 3.77861 18.3335 3.88889 17.8147L4.72054 13.9021C4.83082 13.3832 5.1427 12.9295 5.58756 12.6406C6.03242 12.3517 6.57382 12.2513 7.09266 12.3616L11.0053 13.1933C11.5241 13.3035 11.9779 13.6154 12.2668 14.0603C12.5557 14.5051 12.656 15.0465 12.5457 15.5654L12.3378 16.5435L16.2504 17.3752L17.082 13.4626C17.2475 12.6843 17.7153 12.0036 18.3826 11.5703C19.0499 11.137 19.862 10.9864 20.6402 11.1519L22.5965 11.5677L23.0123 9.6114C23.1226 9.09256 23.4345 8.63878 23.8794 8.34988C24.3242 8.06099 24.8656 7.96064 25.3845 8.07093L31.2533 9.3184C31.7722 9.42868 32.226 9.74056 32.5149 10.1854C32.8038 10.6303 32.9041 11.1717 32.7938 11.6905L31.5464 17.5594C31.4361 18.0782 31.1242 18.532 30.6793 18.8209C30.2345 19.1098 29.6931 19.2102 29.1742 19.0999L23.3053 17.8524C22.7865 17.7421 22.3327 17.4302 22.0438 16.9854C21.7549 16.5405 21.6546 15.9991 21.7649 15.4803Z" fill="white"/>
</g>
<defs>
<clipPath id="clip0_116_661">
<rect width="32" height="32" fill="white" transform="translate(6.65317) rotate(12)"/>
</clipPath>
</defs>
</svg>
