<svg width="38" height="38" viewBox="0 0 38 38" fill="none" xmlns="http://www.w3.org/2000/svg">
<path d="M30.7997 7.2628L32.463 15.088C32.5043 15.2815 32.4873 15.483 32.414 15.6668C32.3408 15.8506 32.2146 16.0086 32.0515 16.1207C31.8884 16.2328 31.6958 16.294 31.4979 16.2966C31.3 16.2991 31.1058 16.2429 30.9399 16.135L27.0346 13.5978L21.4179 22.2484C21.3464 22.3586 21.2538 22.4537 21.1455 22.5282C21.0373 22.6026 20.9154 22.655 20.7868 22.6823C20.6583 22.7097 20.5256 22.7114 20.3964 22.6874C20.2672 22.6634 20.144 22.6142 20.0338 22.5426L14.9424 19.2351L8.55545 29.0717C8.41092 29.2943 8.18391 29.4503 7.92434 29.5055C7.66478 29.5606 7.39393 29.5104 7.17137 29.3659C6.94882 29.2214 6.7928 28.9944 6.73762 28.7348C6.68245 28.4752 6.73265 28.2044 6.87718 27.9818L13.8093 17.3073C13.8808 17.1971 13.9734 17.102 14.0816 17.0275C14.1899 16.953 14.3118 16.9007 14.4404 16.8733C14.5689 16.846 14.7016 16.8443 14.8308 16.8683C14.96 16.8923 15.0832 16.9415 15.1934 17.0131L20.2848 20.3206L25.3578 12.5089L21.4514 9.97315C21.2854 9.86546 21.1551 9.71093 21.0769 9.52912C20.9988 9.34731 20.9763 9.1464 21.0124 8.95182C21.0485 8.75725 21.1415 8.57775 21.2796 8.43606C21.4178 8.29437 21.5949 8.19685 21.7885 8.15586L29.6137 6.49257C29.8731 6.43743 30.1438 6.4876 30.3662 6.63205C30.5886 6.77649 30.7446 7.00338 30.7997 7.2628Z" fill="white"/>
</svg>
